M48
METRIC,LZ,000.000
;FILE_FORMAT=3:3
;TYPE=PLATED
;Layer: Drill PTH
;EasyEDA v6.4.25, 2021-10-09T05:44:53+02:00
;3c18a9597c8044bdbc100f5c1c0a61b4,11806c6667b54f078b534f3636c84428,10
;Gerber Generator version 0.2
;Holesize 1 = 0.889 mm
T01C0.889
;Holesize 2 = 0.915 mm
T02C0.915
;Holesize 3 = 1.000 mm
T03C1.000
;Holesize 4 = 1.199 mm
T04C1.199
%
G05
G90
T01
X016208Y009462
X018748Y009462
X021288Y009462
X023828Y009462
X023828Y017082
X021288Y017082
X018748Y017082
X016208Y017082
X026706Y009462
X029246Y009462
X031786Y009462
X034326Y009462
X034326Y017082
X031786Y017082
X029246Y017082
X026706Y017082
X037206Y009462
X039746Y009462
X042286Y009462
X044826Y009462
X044826Y017082
X042286Y017082
X039746Y017082
X037206Y017082
X047714Y009456
X050254Y009456
X052794Y009456
X055334Y009456
X055334Y017076
X052794Y017076
X050254Y017076
X047714Y017076
X058806Y020709
X058806Y023249
X058806Y025789
X058806Y028329
X051186Y028329
X051186Y025789
X051186Y023249
X051186Y020709
X065791Y040541
X063251Y040541
X060711Y040541
X058171Y040541
X058171Y032921
X060711Y032921
X063251Y032921
X065791Y032921
X055291Y040541
X052751Y040541
X050211Y040541
X047671Y040541
X047671Y032921
X050211Y032921
X052751Y032921
X055291Y032921
X044783Y040541
X042243Y040541
X039703Y040541
X037163Y040541
X037163Y032921
X039703Y032921
X042243Y032921
X044783Y032921
X034282Y040541
X031742Y040541
X029202Y040541
X026662Y040541
X026662Y032921
X029202Y032921
X031742Y032921
X034282Y032921
X023785Y040536
X021245Y040536
X018705Y040536
X016165Y040536
X016165Y032916
X018705Y032916
X021245Y032916
X023785Y032916
X058212Y009456
X060752Y009456
X063292Y009456
X065832Y009456
X065832Y017076
X063292Y017076
X060752Y017076
X058212Y017076
T02
X054999Y048499
X010480Y006746
X013020Y006746
X025011Y006769
X025011Y004229
X037511Y006769
X037511Y004229
X050010Y004191
X050010Y006731
X062509Y004186
X062509Y006726
X064521Y029246
X061981Y029246
X063492Y042982
X063492Y045522
X050996Y042977
X050996Y045517
X038511Y042972
X038511Y045512
X026007Y045557
X026007Y043017
X013264Y043010
X010724Y043010
T03
X067501Y047501
X067501Y002499
X002543Y047549
X002543Y002550
T04
X005001Y022616
X005001Y020114
X005001Y017615
X005001Y015116
X005001Y012616
X005001Y010114
X005001Y007615
X004948Y042616
X004948Y040114
X004948Y037615
X004948Y035116
X004948Y032616
X004948Y030114
X004948Y027615
M30
