G04 Layer: BottomSilkLayer*
G04 EasyEDA v6.4.25, 2021-10-09T05:44:53+02:00*
G04 3c18a9597c8044bdbc100f5c1c0a61b4,11806c6667b54f078b534f3636c84428,10*
G04 Gerber Generator version 0.2*
G04 Scale: 100 percent, Rotated: No, Reflected: No *
G04 Dimensions in millimeters *
G04 leading zeros omitted , absolute positions ,4 integer and 5 decimal *
%FSLAX45Y45*%
%MOMM*%

%ADD21C,0.2032*%
%ADD24C,0.3000*%

%LPD*%
D21*
X5283961Y4890770D02*
G01*
X5293106Y4890770D01*
X5301995Y4886197D01*
X5306568Y4872481D01*
X5306568Y4795265D01*
X5320284Y4858765D02*
G01*
X5288534Y4858765D01*
X5231129Y4858765D02*
G01*
X5240274Y4854447D01*
X5249418Y4845304D01*
X5253990Y4831587D01*
X5253990Y4822444D01*
X5249418Y4808981D01*
X5240274Y4799837D01*
X5231129Y4795265D01*
X5217668Y4795265D01*
X5208524Y4799837D01*
X5199379Y4808981D01*
X5194808Y4822444D01*
X5194808Y4831587D01*
X5199379Y4845304D01*
X5208524Y4854447D01*
X5217668Y4858765D01*
X5231129Y4858765D01*
X5164836Y4858765D02*
G01*
X5164836Y4795265D01*
X5164836Y4831587D02*
G01*
X5160263Y4845304D01*
X5151120Y4854447D01*
X5141975Y4858765D01*
X5128513Y4858765D01*
X5093970Y4849876D02*
G01*
X5098541Y4845304D01*
X5093970Y4840731D01*
X5089397Y4845304D01*
X5093970Y4849876D01*
X5093970Y4817871D02*
G01*
X5098541Y4813554D01*
X5093970Y4808981D01*
X5089397Y4813554D01*
X5093970Y4817871D01*
X4989322Y4890770D02*
G01*
X4989322Y4822444D01*
X4984750Y4808981D01*
X4975859Y4799837D01*
X4962143Y4795265D01*
X4953000Y4795265D01*
X4939284Y4799837D01*
X4930393Y4808981D01*
X4925822Y4822444D01*
X4925822Y4890770D01*
X4886706Y4813554D02*
G01*
X4891277Y4808981D01*
X4895850Y4813554D01*
X4891277Y4817871D01*
X4886706Y4813554D01*
X4886706Y4804410D01*
X4895850Y4795265D01*
X4856734Y4890770D02*
G01*
X4856734Y4795265D01*
X4856734Y4890770D02*
G01*
X4815840Y4890770D01*
X4802124Y4886197D01*
X4797552Y4881626D01*
X4792979Y4872481D01*
X4792979Y4858765D01*
X4797552Y4849876D01*
X4802124Y4845304D01*
X4815840Y4840731D01*
X4856734Y4840731D01*
X4763008Y4836160D02*
G01*
X4681220Y4836160D01*
X4651247Y4872481D02*
G01*
X4642104Y4877054D01*
X4628388Y4890770D01*
X4628388Y4795265D01*
X4598415Y4858765D02*
G01*
X4598415Y4763515D01*
X4598415Y4845304D02*
G01*
X4589272Y4854447D01*
X4580381Y4858765D01*
X4566665Y4858765D01*
X4557522Y4854447D01*
X4548377Y4845304D01*
X4543806Y4831587D01*
X4543806Y4822444D01*
X4548377Y4808981D01*
X4557522Y4799837D01*
X4566665Y4795265D01*
X4580381Y4795265D01*
X4589272Y4799837D01*
X4598415Y4808981D01*
X4513834Y4890770D02*
G01*
X4509261Y4886197D01*
X4504943Y4890770D01*
X4509261Y4895342D01*
X4513834Y4890770D01*
X4509261Y4858765D02*
G01*
X4509261Y4795265D01*
X4474718Y4858765D02*
G01*
X4474718Y4795265D01*
X4474718Y4840731D02*
G01*
X4461256Y4854447D01*
X4452111Y4858765D01*
X4438395Y4858765D01*
X4429252Y4854447D01*
X4424934Y4840731D01*
X4424934Y4795265D01*
X4390390Y4849876D02*
G01*
X4394708Y4845304D01*
X4390390Y4840731D01*
X4385818Y4845304D01*
X4390390Y4849876D01*
X4385818Y4813554D02*
G01*
X4390390Y4808981D01*
X4394708Y4813554D01*
X4390390Y4817871D01*
X4385818Y4813554D01*
X4385818Y4804410D01*
X4394708Y4795265D01*
X4249420Y4890770D02*
G01*
X4258563Y4890770D01*
X4267454Y4886197D01*
X4272025Y4872481D01*
X4272025Y4795265D01*
X4285741Y4858765D02*
G01*
X4253991Y4858765D01*
X4196588Y4858765D02*
G01*
X4205731Y4854447D01*
X4214875Y4845304D01*
X4219447Y4831587D01*
X4219447Y4822444D01*
X4214875Y4808981D01*
X4205731Y4799837D01*
X4196588Y4795265D01*
X4183125Y4795265D01*
X4173981Y4799837D01*
X4164838Y4808981D01*
X4160265Y4822444D01*
X4160265Y4831587D01*
X4164838Y4845304D01*
X4173981Y4854447D01*
X4183125Y4858765D01*
X4196588Y4858765D01*
X4130293Y4858765D02*
G01*
X4130293Y4795265D01*
X4130293Y4831587D02*
G01*
X4125722Y4845304D01*
X4116577Y4854447D01*
X4107434Y4858765D01*
X4093972Y4858765D01*
X4059427Y4849876D02*
G01*
X4064000Y4845304D01*
X4059427Y4840731D01*
X4054856Y4845304D01*
X4059427Y4849876D01*
X4059427Y4817871D02*
G01*
X4064000Y4813554D01*
X4059427Y4808981D01*
X4054856Y4813554D01*
X4059427Y4817871D01*
X3886708Y4867910D02*
G01*
X3891279Y4877054D01*
X3900170Y4886197D01*
X3909313Y4890770D01*
X3927602Y4890770D01*
X3936745Y4886197D01*
X3945636Y4877054D01*
X3950208Y4867910D01*
X3954779Y4854447D01*
X3954779Y4831587D01*
X3950208Y4817871D01*
X3945636Y4808981D01*
X3936745Y4799837D01*
X3927602Y4795265D01*
X3909313Y4795265D01*
X3900170Y4799837D01*
X3891279Y4808981D01*
X3886708Y4817871D01*
X3856736Y4836160D02*
G01*
X3774947Y4836160D01*
X3744722Y4858765D02*
G01*
X3744722Y4763515D01*
X3744722Y4845304D02*
G01*
X3735831Y4854447D01*
X3726688Y4858765D01*
X3712972Y4858765D01*
X3703827Y4854447D01*
X3694938Y4845304D01*
X3690365Y4831587D01*
X3690365Y4822444D01*
X3694938Y4808981D01*
X3703827Y4799837D01*
X3712972Y4795265D01*
X3726688Y4795265D01*
X3735831Y4799837D01*
X3744722Y4808981D01*
X3660393Y4890770D02*
G01*
X3660393Y4795265D01*
X3630168Y4858765D02*
G01*
X3630168Y4813554D01*
X3625850Y4799837D01*
X3616706Y4795265D01*
X3602990Y4795265D01*
X3593845Y4799837D01*
X3580384Y4813554D01*
X3580384Y4858765D02*
G01*
X3580384Y4795265D01*
X3500374Y4845304D02*
G01*
X3504945Y4854447D01*
X3518408Y4858765D01*
X3532124Y4858765D01*
X3545840Y4854447D01*
X3550411Y4845304D01*
X3545840Y4836160D01*
X3536695Y4831587D01*
X3513836Y4827015D01*
X3504945Y4822444D01*
X3500374Y4813554D01*
X3500374Y4808981D01*
X3504945Y4799837D01*
X3518408Y4795265D01*
X3532124Y4795265D01*
X3545840Y4799837D01*
X3550411Y4808981D01*
X3465829Y4817871D02*
G01*
X3470402Y4813554D01*
X3465829Y4808981D01*
X3461258Y4813554D01*
X3465829Y4817871D01*
X3199993Y4875898D02*
G01*
X3199993Y4780442D01*
X3199993Y4875898D02*
G01*
X3159084Y4875898D01*
X3145447Y4871351D01*
X3140903Y4866807D01*
X3136356Y4857716D01*
X3136356Y4844079D01*
X3140903Y4834989D01*
X3145447Y4830442D01*
X3159084Y4825898D01*
X3199993Y4825898D01*
X3106356Y4844079D02*
G01*
X3106356Y4780442D01*
X3106356Y4816807D02*
G01*
X3101812Y4830442D01*
X3092721Y4839535D01*
X3083631Y4844079D01*
X3069993Y4844079D01*
X3017265Y4844079D02*
G01*
X3026356Y4839535D01*
X3035447Y4830442D01*
X3039993Y4816807D01*
X3039993Y4807717D01*
X3035447Y4794079D01*
X3026356Y4784989D01*
X3017265Y4780442D01*
X3003631Y4780442D01*
X2994540Y4784989D01*
X2985447Y4794079D01*
X2980903Y4807717D01*
X2980903Y4816807D01*
X2985447Y4830442D01*
X2994540Y4839535D01*
X3003631Y4844079D01*
X3017265Y4844079D01*
X2950903Y4844079D02*
G01*
X2950903Y4780442D01*
X2950903Y4825898D02*
G01*
X2937266Y4839535D01*
X2928175Y4844079D01*
X2914540Y4844079D01*
X2905447Y4839535D01*
X2900903Y4825898D01*
X2900903Y4780442D01*
X2900903Y4825898D02*
G01*
X2887266Y4839535D01*
X2878175Y4844079D01*
X2864540Y4844079D01*
X2855447Y4839535D01*
X2850903Y4825898D01*
X2850903Y4780442D01*
X2820903Y4816807D02*
G01*
X2766357Y4816807D01*
X2766357Y4825898D01*
X2770903Y4834989D01*
X2775447Y4839535D01*
X2784541Y4844079D01*
X2798175Y4844079D01*
X2807266Y4839535D01*
X2816357Y4830442D01*
X2820903Y4816807D01*
X2820903Y4807717D01*
X2816357Y4794079D01*
X2807266Y4784989D01*
X2798175Y4780442D01*
X2784541Y4780442D01*
X2775447Y4784989D01*
X2766357Y4794079D01*
X2722722Y4875898D02*
G01*
X2722722Y4798626D01*
X2718175Y4784989D01*
X2709085Y4780442D01*
X2699994Y4780442D01*
X2736357Y4844079D02*
G01*
X2704541Y4844079D01*
X2669994Y4875898D02*
G01*
X2669994Y4780442D01*
X2669994Y4825898D02*
G01*
X2656357Y4839535D01*
X2647266Y4844079D01*
X2633632Y4844079D01*
X2624541Y4839535D01*
X2619994Y4825898D01*
X2619994Y4780442D01*
X2589994Y4816807D02*
G01*
X2535448Y4816807D01*
X2535448Y4825898D01*
X2539994Y4834989D01*
X2544541Y4839535D01*
X2553632Y4844079D01*
X2567266Y4844079D01*
X2576357Y4839535D01*
X2585448Y4830442D01*
X2589994Y4816807D01*
X2589994Y4807717D01*
X2585448Y4794079D01*
X2576357Y4784989D01*
X2567266Y4780442D01*
X2553632Y4780442D01*
X2544541Y4784989D01*
X2535448Y4794079D01*
X2482722Y4844079D02*
G01*
X2491813Y4839535D01*
X2500904Y4830442D01*
X2505448Y4816807D01*
X2505448Y4807717D01*
X2500904Y4794079D01*
X2491813Y4784989D01*
X2482722Y4780442D01*
X2469085Y4780442D01*
X2459995Y4784989D01*
X2450904Y4794079D01*
X2446357Y4807717D01*
X2446357Y4816807D01*
X2450904Y4830442D01*
X2459995Y4839535D01*
X2469085Y4844079D01*
X2482722Y4844079D01*
X2416357Y4844079D02*
G01*
X2416357Y4780442D01*
X2416357Y4825898D02*
G01*
X2402723Y4839535D01*
X2393632Y4844079D01*
X2379995Y4844079D01*
X2370904Y4839535D01*
X2366357Y4825898D01*
X2366357Y4780442D01*
X2234542Y4875898D02*
G01*
X2234542Y4780442D01*
X2266358Y4875898D02*
G01*
X2202723Y4875898D01*
X2172723Y4816807D02*
G01*
X2118177Y4816807D01*
X2118177Y4825898D01*
X2122723Y4834989D01*
X2127267Y4839535D01*
X2136358Y4844079D01*
X2149995Y4844079D01*
X2159086Y4839535D01*
X2168177Y4830442D01*
X2172723Y4816807D01*
X2172723Y4807717D01*
X2168177Y4794079D01*
X2159086Y4784989D01*
X2149995Y4780442D01*
X2136358Y4780442D01*
X2127267Y4784989D01*
X2118177Y4794079D01*
X2033633Y4830442D02*
G01*
X2042723Y4839535D01*
X2051814Y4844079D01*
X2065449Y4844079D01*
X2074542Y4839535D01*
X2083633Y4830442D01*
X2088177Y4816807D01*
X2088177Y4807717D01*
X2083633Y4794079D01*
X2074542Y4784989D01*
X2065449Y4780442D01*
X2051814Y4780442D01*
X2042723Y4784989D01*
X2033633Y4794079D01*
X2003633Y4875898D02*
G01*
X2003633Y4780442D01*
X2003633Y4825898D02*
G01*
X1989996Y4839535D01*
X1980905Y4844079D01*
X1967268Y4844079D01*
X1958177Y4839535D01*
X1953633Y4825898D01*
X1953633Y4780442D01*
X1923633Y4844079D02*
G01*
X1923633Y4780442D01*
X1923633Y4825898D02*
G01*
X1909996Y4839535D01*
X1900905Y4844079D01*
X1887268Y4844079D01*
X1878177Y4839535D01*
X1873633Y4825898D01*
X1873633Y4780442D01*
X1820905Y4844079D02*
G01*
X1829996Y4839535D01*
X1839086Y4830442D01*
X1843633Y4816807D01*
X1843633Y4807717D01*
X1839086Y4794079D01*
X1829996Y4784989D01*
X1820905Y4780442D01*
X1807268Y4780442D01*
X1798177Y4784989D01*
X1789087Y4794079D01*
X1784543Y4807717D01*
X1784543Y4816807D01*
X1789087Y4830442D01*
X1798177Y4839535D01*
X1807268Y4844079D01*
X1820905Y4844079D01*
X1754543Y4875898D02*
G01*
X1754543Y4780442D01*
X1701815Y4844079D02*
G01*
X1710905Y4839535D01*
X1719996Y4830442D01*
X1724543Y4816807D01*
X1724543Y4807717D01*
X1719996Y4794079D01*
X1710905Y4784989D01*
X1701815Y4780442D01*
X1688177Y4780442D01*
X1679087Y4784989D01*
X1669996Y4794079D01*
X1665450Y4807717D01*
X1665450Y4816807D01*
X1669996Y4830442D01*
X1679087Y4839535D01*
X1688177Y4844079D01*
X1701815Y4844079D01*
X1580906Y4844079D02*
G01*
X1580906Y4771351D01*
X1585450Y4757717D01*
X1589996Y4753170D01*
X1599087Y4748626D01*
X1612724Y4748626D01*
X1621815Y4753170D01*
X1580906Y4830442D02*
G01*
X1589996Y4839535D01*
X1599087Y4844079D01*
X1612724Y4844079D01*
X1621815Y4839535D01*
X1630906Y4830442D01*
X1635450Y4816807D01*
X1635450Y4807717D01*
X1630906Y4794079D01*
X1621815Y4784989D01*
X1612724Y4780442D01*
X1599087Y4780442D01*
X1589996Y4784989D01*
X1580906Y4794079D01*
X1550906Y4875898D02*
G01*
X1546359Y4871351D01*
X1541815Y4875898D01*
X1546359Y4880442D01*
X1550906Y4875898D01*
X1546359Y4844079D02*
G01*
X1546359Y4780442D01*
X1511815Y4816807D02*
G01*
X1457269Y4816807D01*
X1457269Y4825898D01*
X1461815Y4834989D01*
X1466359Y4839535D01*
X1475450Y4844079D01*
X1489087Y4844079D01*
X1498178Y4839535D01*
X1507269Y4830442D01*
X1511815Y4816807D01*
X1511815Y4807717D01*
X1507269Y4794079D01*
X1498178Y4784989D01*
X1489087Y4780442D01*
X1475450Y4780442D01*
X1466359Y4784989D01*
X1457269Y4794079D01*
X1377269Y4830442D02*
G01*
X1381815Y4839535D01*
X1395450Y4844079D01*
X1409087Y4844079D01*
X1422725Y4839535D01*
X1427269Y4830442D01*
X1422725Y4821351D01*
X1413634Y4816807D01*
X1390906Y4812261D01*
X1381815Y4807717D01*
X1377269Y4798626D01*
X1377269Y4794079D01*
X1381815Y4784989D01*
X1395450Y4780442D01*
X1409087Y4780442D01*
X1422725Y4784989D01*
X1427269Y4794079D01*
D24*
X5199989Y280045D02*
G01*
X5199989Y86083D01*
X5070680Y280045D02*
G01*
X5070680Y86083D01*
X5199989Y187683D02*
G01*
X5070680Y187683D01*
X5009720Y280045D02*
G01*
X5009720Y86083D01*
X5009720Y280045D02*
G01*
X4935829Y86083D01*
X4861938Y280045D02*
G01*
X4935829Y86083D01*
X4861938Y280045D02*
G01*
X4861938Y86083D01*
X4671669Y252336D02*
G01*
X4690143Y270809D01*
X4717851Y280045D01*
X4754796Y280045D01*
X4782505Y270809D01*
X4800978Y252336D01*
X4800978Y233862D01*
X4791743Y215392D01*
X4782505Y206154D01*
X4764034Y196918D01*
X4708613Y178445D01*
X4690143Y169209D01*
X4680905Y159974D01*
X4671669Y141500D01*
X4671669Y113792D01*
X4690143Y95318D01*
X4717851Y86083D01*
X4754796Y86083D01*
X4782505Y95318D01*
X4800978Y113792D01*
X4394578Y280045D02*
G01*
X4468469Y86083D01*
X4394578Y280045D02*
G01*
X4320687Y86083D01*
X4440760Y150736D02*
G01*
X4348396Y150736D01*
X4148891Y187683D02*
G01*
X4167365Y206154D01*
X4185836Y215392D01*
X4213545Y215392D01*
X4232018Y206154D01*
X4250491Y187683D01*
X4259727Y159974D01*
X4259727Y141500D01*
X4250491Y113792D01*
X4232018Y95318D01*
X4213545Y86083D01*
X4185836Y86083D01*
X4167365Y95318D01*
X4148891Y113792D01*
X4060223Y280045D02*
G01*
X4060223Y123027D01*
X4050985Y95318D01*
X4032514Y86083D01*
X4014040Y86083D01*
X4087931Y215392D02*
G01*
X4023276Y215392D01*
X3953080Y280045D02*
G01*
X3943845Y270809D01*
X3934607Y280045D01*
X3943845Y289283D01*
X3953080Y280045D01*
X3943845Y215392D02*
G01*
X3943845Y86083D01*
X3873647Y215392D02*
G01*
X3818229Y86083D01*
X3762811Y215392D02*
G01*
X3818229Y86083D01*
X3701851Y159974D02*
G01*
X3591013Y159974D01*
X3591013Y178445D01*
X3600251Y196918D01*
X3609487Y206154D01*
X3627960Y215392D01*
X3655669Y215392D01*
X3674143Y206154D01*
X3692613Y187683D01*
X3701851Y159974D01*
X3701851Y141500D01*
X3692613Y113792D01*
X3674143Y95318D01*
X3655669Y86083D01*
X3627960Y86083D01*
X3609487Y95318D01*
X3591013Y113792D01*
X3387813Y280045D02*
G01*
X3387813Y86083D01*
X3387813Y280045D02*
G01*
X3304687Y280045D01*
X3276978Y270809D01*
X3267743Y261574D01*
X3258505Y243100D01*
X3258505Y224627D01*
X3267743Y206154D01*
X3276978Y196918D01*
X3304687Y187683D01*
X3387813Y187683D02*
G01*
X3304687Y187683D01*
X3276978Y178445D01*
X3267743Y169209D01*
X3258505Y150736D01*
X3258505Y123027D01*
X3267743Y104554D01*
X3276978Y95318D01*
X3304687Y86083D01*
X3387813Y86083D01*
X3086709Y215392D02*
G01*
X3086709Y86083D01*
X3086709Y187683D02*
G01*
X3105183Y206154D01*
X3123653Y215392D01*
X3151365Y215392D01*
X3169836Y206154D01*
X3188309Y187683D01*
X3197545Y159974D01*
X3197545Y141500D01*
X3188309Y113792D01*
X3169836Y95318D01*
X3151365Y86083D01*
X3123653Y86083D01*
X3105183Y95318D01*
X3086709Y113792D01*
X3025749Y280045D02*
G01*
X3025749Y86083D01*
X2853954Y215392D02*
G01*
X2853954Y86083D01*
X2853954Y187683D02*
G01*
X2872425Y206154D01*
X2890898Y215392D01*
X2918607Y215392D01*
X2937080Y206154D01*
X2955554Y187683D01*
X2964789Y159974D01*
X2964789Y141500D01*
X2955554Y113792D01*
X2937080Y95318D01*
X2918607Y86083D01*
X2890898Y86083D01*
X2872425Y95318D01*
X2853954Y113792D01*
X2792994Y215392D02*
G01*
X2792994Y86083D01*
X2792994Y178445D02*
G01*
X2765285Y206154D01*
X2746811Y215392D01*
X2719103Y215392D01*
X2700629Y206154D01*
X2691394Y178445D01*
X2691394Y86083D01*
X2519596Y187683D02*
G01*
X2538069Y206154D01*
X2556543Y215392D01*
X2584251Y215392D01*
X2602725Y206154D01*
X2621196Y187683D01*
X2630434Y159974D01*
X2630434Y141500D01*
X2621196Y113792D01*
X2602725Y95318D01*
X2584251Y86083D01*
X2556543Y86083D01*
X2538069Y95318D01*
X2519596Y113792D01*
X2458636Y159974D02*
G01*
X2347800Y159974D01*
X2347800Y178445D01*
X2357036Y196918D01*
X2366274Y206154D01*
X2384745Y215392D01*
X2412453Y215392D01*
X2430927Y206154D01*
X2449400Y187683D01*
X2458636Y159974D01*
X2458636Y141500D01*
X2449400Y113792D01*
X2430927Y95318D01*
X2412453Y86083D01*
X2384745Y86083D01*
X2366274Y95318D01*
X2347800Y113792D01*
X2286840Y215392D02*
G01*
X2286840Y86083D01*
X2286840Y159974D02*
G01*
X2277605Y187683D01*
X2259131Y206154D01*
X2240658Y215392D01*
X2212949Y215392D01*
M02*
